<svg width="600" height="600" xmlns="http://www.w3.org/2000/svg">
 <defs>
  <linearGradient y2="1.30427" x2="0.12372" y1="-4.12173" x1="0.67606" id="paint0_linear">
   <stop stop-color="#00FFA3"/>
   <stop stop-color="#DC1FFF" offset="1"/>
  </linearGradient>
  <linearGradient y2="4.32351" x2="0.12372" y1="-1.10249" x1="0.67606" id="paint1_linear">
   <stop stop-color="#00FFA3"/>
   <stop stop-color="#DC1FFF" offset="1"/>
  </linearGradient>
  <linearGradient y2="2.8235" x2="0.12372" y1="-2.6025" x1="0.67606" id="paint2_linear">
   <stop stop-color="#00FFA3"/>
   <stop stop-color="#DC1FFF" offset="1"/>
  </linearGradient>
 </defs>
 <g>
  <title>Layer 1</title>
  <path id="svg_1" fill="url(#paint0_linear)" d="m123.88914,376.202c3.19299,-3.19 7.522,-4.98199 12.03601,-4.98199l416.45998,0c7.586,0 11.38403,9.17401 6.01703,14.53601l-82.29102,82.22598c-3.19299,3.19098 -7.52197,4.98303 -12.03601,4.98303l-416.45999,0c-7.586,0 -11.384,-9.17401 -6.01801,-14.53702l82.29201,-82.22601z"/>
  <path id="svg_2" fill="url(#paint1_linear)" d="m123.88914,131.011c3.19299,-3.19099 7.522,-4.983 12.03601,-4.983l416.45998,0c7.586,0 11.38403,9.17401 6.01703,14.537l-82.29102,82.226c-3.19299,3.19 -7.52197,4.98199 -12.03601,4.98199l-416.45999,0c-7.586,0 -11.384,-9.174 -6.018,-14.536l82.292,-82.226z"/>
  <path id="svg_3" fill="url(#paint2_linear)" d="m476.11115,254.1095c-3.19299,-3.19 -7.52197,-4.98199 -12.03601,-4.98199l-416.45999,0c-7.586,0 -11.384,9.17401 -6.01801,14.53601l82.29201,82.22598c3.19299,3.19101 7.522,4.983 12.03601,4.983l416.45998,0c7.586,0 11.38403,-9.17398 6.01703,-14.53699l-82.29102,-82.22601z"/>
 </g>
</svg>